<?xml version="1.0" standalone="no"?>
<!DOCTYPE svg PUBLIC "-//W3C//DTD SVG 20010904//EN"
 "http://www.w3.org/TR/2001/REC-SVG-20010904/DTD/svg10.dtd">
<svg version="1.0" xmlns="http://www.w3.org/2000/svg"
 width="1536.000000pt" height="1920.000000pt" viewBox="0 0 1536.000000 1920.000000"
 preserveAspectRatio="xMidYMid meet">
<metadata>
Created by potrace 1.16, written by Peter Selinger 2001-2019
</metadata>
<g transform="translate(0.000000,1920.000000) scale(0.100000,-0.100000)"
fill="#000000" stroke="none">
<path d="M5930 18132 c-18 -2 -34 -19 -60 -64 -42 -73 -47 -83 -30 -73 9 5 11
4 6 -4 -4 -6 -11 -9 -16 -6 -14 9 -140 -217 -154 -275 -6 -25 15 17 35 69 5
13 12 22 14 19 3 -2 -11 -45 -31 -94 -36 -88 -54 -123 -39 -74 16 51 15 54 -3
15 -11 -22 -22 -51 -26 -65 l-7 -25 16 25 c12 19 15 20 10 5 -13 -45 -58 -155
-62 -151 -2 2 6 27 17 56 11 29 19 54 17 56 -4 4 -69 -160 -86 -216 -5 -19
-12 -57 -15 -85 -5 -46 -4 -45 9 15 18 79 46 163 51 157 2 -2 -3 -23 -11 -47
-8 -24 -29 -120 -45 -214 -36 -205 -41 -412 -13 -543 9 -43 17 -98 17 -123 l1
-45 -165 -27 c-273 -44 -300 -49 -430 -80 -69 -16 -147 -34 -175 -40 -27 -6
-68 -17 -90 -24 -162 -52 -188 -54 -214 -14 -9 14 -11 21 -3 16 6 -4 12 -4 12
1 0 17 -68 128 -78 128 -6 0 -14 4 -19 9 -5 5 -3 6 5 2 19 -11 15 -1 -23 59
-20 31 -40 53 -45 50 -5 -3 -12 0 -16 6 -4 8 -3 9 4 5 7 -4 12 -4 12 -1 0 15
-193 294 -200 290 -5 -3 -12 0 -16 6 -4 8 -3 9 4 5 25 -15 9 12 -49 84 -67 84
-357 392 -404 429 -16 13 20 -27 80 -90 184 -190 268 -281 318 -346 27 -35 46
-63 43 -63 -2 0 -27 29 -54 64 -172 218 -464 490 -690 643 -105 70 -108 68
-123 -82 -20 -196 7 -890 41 -1041 17 -76 150 -534 166 -572 27 -66 20 -83
-53 -127 -82 -49 -97 -55 -58 -20 l30 26 -37 -23 c-21 -13 -33 -24 -28 -26 5
-2 6 -10 3 -18 -3 -9 0 -26 7 -40 11 -19 21 -24 51 -24 33 0 74 -25 300 -181
853 -589 1223 -918 1610 -1434 219 -292 439 -665 539 -915 12 -30 39 -90 59
-133 l38 -78 -39 -47 c-32 -40 -52 -79 -83 -169 -3 -8 -24 8 -52 39 -108 115
-330 285 -359 274 -7 -3 -11 0 -8 7 4 12 -11 22 -68 49 -16 7 -28 16 -28 21 0
4 -4 5 -10 2 -5 -3 -10 -11 -10 -16 0 -6 5 -7 10 -4 6 3 10 -3 10 -14 0 -15 4
-19 17 -14 13 5 15 2 10 -11 -4 -10 -3 -15 3 -11 5 3 18 0 29 -6 16 -10 17
-17 9 -38 -7 -21 -7 -24 3 -13 17 16 34 16 20 -1 -17 -21 0 -29 21 -10 10 9
18 11 18 6 0 -32 -47 -38 -80 -10 -11 9 -52 35 -92 57 -40 22 -80 45 -88 50
-8 6 -27 16 -42 23 -16 6 -28 15 -28 18 0 10 -238 125 -395 192 -122 52 -212
85 -300 112 -49 15 -99 31 -110 35 -11 5 -49 16 -85 25 -129 33 -150 40 -150
48 0 5 -10 7 -22 4 -14 -4 -26 0 -33 10 -8 10 -31 18 -61 20 -99 8 -99 24 0
27 47 1 66 -3 66 -11 0 -7 5 -13 10 -13 6 0 10 4 10 8 0 20 -28 32 -73 32 -26
0 -56 4 -66 10 -10 5 -49 14 -87 20 -38 6 -80 13 -94 16 -130 26 -675 29 -845
4 -301 -43 -479 -82 -695 -150 -30 -9 -74 -23 -96 -30 -82 -25 -87 -40 121
352 149 282 148 281 129 295 -23 17 -14 18 -145 -17 -266 -69 -431 -142 -626
-276 -87 -60 -123 -79 -123 -68 0 30 290 448 377 544 13 14 23 28 23 32 0 4
27 38 61 75 33 37 65 78 70 91 5 12 13 22 19 22 5 0 10 7 10 15 0 9 7 18 15
21 19 8 38 41 30 54 -3 5 -42 -32 -87 -83 -44 -50 -96 -109 -115 -130 -74 -82
-228 -298 -318 -449 -5 -9 -27 -44 -48 -77 -35 -55 -43 -75 -46 -104 -1 -5 -6
-5 -11 -2 -6 3 -10 -3 -10 -14 0 -11 -4 -23 -10 -26 -18 -11 -11 -35 8 -28 9
4 19 9 22 12 10 11 105 56 113 53 5 -1 6 1 3 6 -6 11 286 177 355 201 30 11
108 40 174 65 66 25 128 46 138 46 30 0 59 -20 53 -36 -3 -9 -1 -12 4 -9 19
12 10 -42 -11 -66 -12 -13 -28 -34 -36 -46 -9 -13 -21 -20 -31 -16 -13 4 -14
3 -4 -5 11 -7 7 -20 -22 -61 -20 -28 -36 -54 -36 -57 0 -4 -11 -22 -25 -40
-14 -18 -25 -37 -25 -43 0 -5 -15 -36 -34 -68 -18 -32 -46 -87 -61 -123 -16
-36 -33 -71 -38 -77 -7 -9 -4 -13 8 -13 32 0 251 40 366 66 63 15 132 30 154
34 22 4 85 17 140 28 320 64 336 66 730 59 231 -4 372 -10 385 -17 21 -11 28
-40 10 -40 -5 0 -10 -8 -10 -18 0 -11 -101 -117 -250 -261 -219 -213 -283
-282 -237 -255 6 4 3 -2 -7 -14 -23 -26 -33 -29 -16 -4 7 9 -4 -1 -24 -23 -20
-21 -35 -44 -32 -51 2 -7 -7 -22 -22 -35 l-27 -24 24 28 c14 15 21 27 17 27
-9 0 -55 -52 -56 -63 0 -5 6 -5 13 -1 6 4 3 -2 -7 -14 -23 -26 -34 -29 -15 -4
11 14 10 13 -9 -2 -23 -20 -31 -42 -9 -30 6 4 3 -2 -7 -14 -23 -26 -34 -29
-15 -4 11 14 10 13 -9 -2 -23 -20 -31 -42 -9 -30 6 4 3 -2 -7 -14 -21 -25 -36
-31 -16 -7 7 8 10 15 7 15 -11 0 -158 -190 -153 -199 3 -4 -4 -17 -17 -27
l-22 -19 19 23 c11 12 15 22 10 21 -8 0 -164 -192 -173 -213 -2 -5 2 -5 10 0
12 7 12 5 0 -9 -16 -20 -25 -23 -15 -4 4 6 -2 3 -14 -7 -26 -23 -30 -44 -4
-25 14 11 13 10 -2 -9 -21 -24 -32 -29 -20 -9 5 8 2 8 -9 -2 -20 -16 -23 -36
-4 -25 8 5 8 2 -2 -9 -16 -20 -26 -23 -15 -4 5 8 2 8 -9 -2 -20 -16 -23 -36
-4 -25 8 5 8 2 -2 -9 -16 -20 -26 -23 -15 -4 5 8 2 8 -9 -2 -20 -16 -23 -36
-4 -25 8 5 8 2 -2 -9 -16 -20 -25 -22 -16 -4 4 6 -5 -1 -19 -18 -14 -16 -26
-34 -26 -39 0 -4 9 2 21 15 l21 24 -16 -25 c-9 -14 -21 -25 -28 -25 -10 0
-117 -161 -118 -178 0 -5 5 -5 12 -1 7 4 8 3 4 -5 -4 -6 -11 -9 -16 -6 -13 8
-63 -82 -54 -96 4 -7 3 -9 -4 -5 -13 8 -36 -30 -27 -44 4 -6 1 -9 -6 -8 -6 2
-14 -3 -17 -11 -3 -9 0 -11 8 -6 9 5 11 4 6 -4 -4 -6 -11 -9 -16 -6 -5 3 -14
-3 -19 -14 -14 -26 -14 -34 1 -25 7 4 8 3 4 -5 -4 -6 -11 -9 -16 -6 -5 3 -14
-3 -19 -14 -14 -26 -14 -34 1 -25 7 4 8 3 4 -5 -4 -6 -11 -9 -16 -6 -12 8 -43
-53 -34 -67 4 -7 3 -8 -4 -4 -14 8 -46 -50 -36 -66 4 -7 3 -8 -4 -4 -7 4 -26
-23 -52 -73 -42 -85 -46 -96 -30 -86 6 3 7 -1 4 -9 -3 -9 -10 -14 -16 -13 -11
2 -251 -533 -243 -541 3 -3 5 -1 5 4 0 6 7 19 15 30 8 10 1 -14 -17 -54 -17
-40 -33 -70 -35 -68 -3 2 3 18 12 36 9 18 15 34 12 36 -8 9 -69 -145 -61 -157
4 -7 3 -10 -3 -6 -6 4 -22 -20 -38 -56 -36 -83 -41 -99 -15 -57 24 40 22 28
-11 -48 -12 -29 -24 -51 -26 -48 -3 2 1 14 7 26 6 12 10 24 7 26 -5 6 -157
-341 -157 -359 0 -8 4 -7 11 3 9 13 10 12 5 -3 -16 -49 -71 -244 -121 -432
-55 -202 -74 -259 -61 -185 3 19 -3 8 -14 -25 -26 -81 -34 -134 -10 -65 13 38
17 44 13 20 -9 -55 -31 -118 -33 -95 l-1 20 -9 -20 c-5 -11 -9 -27 -9 -35 -1
-13 0 -13 9 0 9 13 10 13 9 0 0 -8 -4 -24 -9 -35 l-9 -20 -1 20 -1 20 -9 -20
c-5 -11 -9 -29 -9 -40 l0 -20 9 20 c14 32 11 4 -5 -50 -14 -48 -15 -49 -10
-10 l4 40 -11 -35 c-5 -19 -18 -62 -28 -95 -23 -78 -34 -138 -20 -110 8 16 9
13 5 -15 -4 -19 -10 -60 -15 -90 -5 -30 -14 -113 -19 -185 -6 -71 -18 -220
-27 -330 -12 -161 -14 -224 -5 -323 6 -67 10 -139 10 -160 -1 -20 -7 17 -14
83 -7 66 -13 104 -13 84 -3 -47 26 -345 38 -400 l9 -44 -4 50 c-8 76 -14 194
-9 160 2 -16 13 -94 24 -172 18 -126 81 -403 110 -478 6 -15 8 -30 6 -32 -3
-3 -10 14 -17 37 -7 24 -15 38 -17 32 -4 -13 36 -115 99 -250 33 -70 52 -101
60 -96 8 4 9 3 5 -5 -9 -14 52 -123 64 -116 5 3 12 0 16 -6 5 -8 3 -9 -6 -4
-8 5 -11 3 -8 -6 3 -8 10 -14 15 -14 6 0 15 -4 20 -9 5 -5 2 -6 -6 -1 -9 5
-12 3 -9 -6 3 -8 10 -14 15 -14 6 0 15 -4 20 -9 5 -5 3 -6 -5 -2 -18 11 -15
-9 5 -25 11 -10 14 -10 9 -1 -11 18 -1 15 15 -5 12 -14 12 -16 0 -9 -9 6 -12
4 -9 -5 3 -8 9 -14 14 -14 16 0 34 -16 29 -25 -7 -12 35 -71 45 -65 4 3 14 -3
21 -13 13 -15 12 -16 -4 -3 -25 20 -21 -2 5 -25 12 -10 18 -13 14 -6 -10 18
-1 15 15 -5 10 -11 10 -14 2 -9 -19 11 -16 -9 4 -25 11 -10 14 -10 9 -1 -11
18 -1 15 15 -5 10 -11 10 -14 2 -9 -19 11 -16 -9 4 -25 11 -10 14 -10 9 -1
-11 18 -1 15 15 -5 10 -11 10 -14 2 -9 -7 4 -13 5 -13 2 0 -19 218 -274 235
-275 5 -1 -13 23 -40 51 l-50 53 58 -55 c54 -51 78 -97 76 -140 0 -8 -7 7 -14
33 -7 27 -17 52 -21 55 -4 4 -5 0 -1 -9 3 -9 18 -75 32 -145 15 -71 29 -131
31 -133 8 -8 3 25 -11 84 -8 33 -14 69 -14 80 1 11 14 -36 29 -105 29 -124 40
-211 15 -115 -22 87 -16 23 9 -91 13 -60 27 -127 31 -149 6 -33 9 -37 15 -20
8 17 9 18 9 2 1 -10 17 -66 36 -124 19 -59 33 -109 30 -111 -2 -2 -19 45 -39
105 -19 59 -35 101 -36 91 0 -26 100 -312 107 -304 2 2 -3 21 -11 41 -9 21
-16 43 -16 49 1 6 16 -27 35 -74 40 -97 43 -110 14 -60 -32 57 -12 -1 24 -68
19 -34 37 -59 41 -55 4 4 4 0 1 -9 -8 -20 21 -79 36 -75 7 1 14 -5 16 -13 4
-13 3 -13 -6 0 -22 31 -10 -3 29 -81 22 -44 45 -77 50 -74 5 3 12 0 16 -6 5
-8 3 -9 -6 -4 -8 5 -11 3 -8 -6 3 -8 10 -14 16 -14 5 0 14 -4 19 -9 5 -5 2 -6
-6 -1 -9 5 -12 3 -9 -6 3 -8 10 -14 16 -14 5 0 14 -4 19 -9 5 -5 3 -6 -4 -2
-19 11 -16 -9 4 -25 14 -12 16 -12 8 0 -5 10 -4 12 4 7 6 -4 9 -12 5 -17 -7
-12 85 -151 96 -144 5 3 12 0 16 -6 5 -8 3 -9 -6 -4 -8 5 -11 3 -8 -6 3 -8 10
-14 16 -14 5 0 14 -4 19 -9 5 -5 2 -6 -6 -1 -9 5 -12 3 -9 -6 3 -8 10 -14 16
-14 5 0 14 -4 19 -9 5 -5 2 -6 -6 -1 -9 5 -12 3 -9 -6 3 -8 10 -14 16 -14 5 0
14 -4 19 -9 5 -5 2 -6 -6 -1 -9 5 -12 3 -9 -6 3 -8 10 -14 16 -14 5 0 14 -4
19 -9 5 -5 3 -6 -5 -2 -18 11 -15 -9 5 -25 11 -10 14 -10 9 -1 -11 18 -1 15
15 -5 12 -14 12 -16 0 -9 -9 6 -12 4 -9 -5 3 -8 10 -14 16 -14 5 0 14 -4 19
-9 5 -5 2 -6 -6 -1 -9 5 -12 3 -9 -6 3 -8 10 -14 16 -14 5 0 14 -4 19 -9 5 -5
2 -6 -6 -1 -9 5 -12 3 -9 -6 3 -8 10 -14 16 -14 5 0 14 -4 19 -9 5 -5 2 -6 -6
-1 -9 5 -12 3 -9 -6 3 -8 10 -14 16 -14 5 0 14 -4 19 -9 5 -5 3 -6 -4 -2 -19
11 -16 -9 4 -25 11 -10 14 -10 9 -1 -11 18 -1 15 15 -5 10 -11 10 -14 2 -9 -7
4 -13 3 -13 -2 0 -12 296 -303 355 -349 81 -63 155 -115 155 -110 0 3 -40 34
-88 70 -49 36 -95 74 -103 84 -8 10 9 0 36 -23 114 -93 384 -281 474 -331 76
-42 163 -75 416 -158 404 -131 381 -125 690 -184 327 -62 281 -57 673 -86
l333 -26 237 26 c375 40 410 45 542 70 69 13 278 51 465 85 187 33 399 72 470
85 72 13 317 58 545 100 228 42 447 83 485 91 39 9 111 20 160 24 77 7 148 16
275 35 170 25 243 31 550 41 130 4 213 3 250 -5 30 -6 73 -13 95 -17 22 -3
105 -17 185 -31 80 -14 152 -25 160 -25 8 0 33 -4 55 -8 22 -5 60 -11 85 -15
25 -3 141 -38 259 -77 260 -86 485 -196 836 -411 239 -146 316 -201 312 -220
-1 -7 5 -11 13 -10 23 4 90 -55 83 -72 -3 -8 0 -15 7 -15 6 0 8 5 5 10 -14 23
12 5 107 -72 55 -46 112 -92 127 -102 24 -18 79 -73 305 -306 112 -115 178
-198 169 -212 -3 -6 -1 -8 5 -4 16 10 27 -15 11 -26 -11 -8 -10 -9 3 -4 22 7
51 -34 42 -58 -3 -9 -1 -16 6 -16 6 0 8 6 4 12 -4 7 7 -3 24 -22 17 -19 29
-41 27 -48 -3 -7 -1 -10 5 -7 5 3 14 -4 21 -16 10 -19 9 -21 -5 -16 -10 4 -15
3 -11 -3 4 -6 14 -9 23 -8 11 2 17 -3 16 -14 -1 -10 2 -16 6 -13 4 3 17 -10
28 -27 16 -24 18 -35 9 -41 -8 -5 -6 -7 6 -5 13 2 30 -19 65 -87 48 -91 120
-225 174 -323 16 -29 26 -57 23 -62 -13 -21 19 -9 59 22 71 55 339 329 410
420 38 48 73 85 78 82 5 -3 7 -2 6 3 -5 16 23 52 36 47 8 -3 17 -1 21 5 4 7 0
8 -12 4 -17 -7 -17 -6 -2 17 9 14 24 25 34 25 10 0 20 7 22 15 4 13 3 13 -6 0
-5 -8 -13 -11 -17 -7 -10 10 26 48 39 40 6 -3 7 -1 3 5 -4 6 1 19 11 29 10 10
26 31 36 46 10 16 23 25 29 21 6 -4 8 -3 4 4 -3 6 5 23 20 39 14 15 23 22 19
16 -3 -7 -1 -13 5 -13 7 0 9 7 6 16 -4 10 5 31 21 53 29 37 43 60 75 125 11
21 29 41 40 44 13 3 16 7 8 12 -8 5 -3 24 16 63 15 31 32 53 37 50 6 -3 7 -1
4 5 -10 15 3 43 16 35 5 -3 7 -1 4 5 -10 15 3 43 16 35 6 -3 7 -1 3 6 -9 15
74 172 87 164 6 -4 7 -1 2 6 -9 16 15 62 28 54 6 -3 7 -1 4 5 -4 5 7 41 24 79
27 58 120 358 134 433 3 14 8 36 11 50 37 152 43 227 39 520 -3 241 -7 321
-25 435 -12 77 -23 149 -25 160 -1 11 -7 38 -13 60 -5 22 -10 47 -10 55 -2 63
-102 486 -147 615 -79 233 -260 639 -278 628 -6 -3 -7 -1 -3 5 4 6 -12 48 -34
92 -34 68 -43 80 -56 70 -7 -7 -14 -18 -14 -25 0 -8 -5 -15 -11 -17 -12 -4 19
-78 33 -78 4 0 8 -6 8 -14 0 -14 28 -81 90 -211 62 -132 66 -143 139 -335 81
-216 96 -266 151 -498 89 -377 126 -701 117 -1022 -5 -197 -34 -416 -73 -550
-159 -554 -385 -944 -884 -1530 -63 -74 -122 -142 -130 -151 -8 -8 -51 -57
-95 -107 -45 -53 -86 -91 -94 -90 -16 3 -16 3 -91 156 -88 180 -139 270 -247
429 -76 113 -117 170 -190 263 -118 150 -327 367 -490 509 -347 303 -788 572
-1181 720 -128 48 -392 130 -467 145 -16 3 -61 13 -100 21 -150 34 -411 72
-555 81 -190 12 -721 9 -912 -4 -103 -8 -195 -11 -205 -7 -10 3 -45 40 -78 81
-66 83 -189 196 -307 283 -98 71 -98 84 -3 117 261 92 534 123 779 89 181 -26
189 0 48 153 -115 125 -322 377 -322 392 0 6 -7 13 -15 16 -8 4 -15 12 -15 18
0 17 -48 61 -57 53 -3 -4 -1 -7 6 -7 8 0 11 -7 7 -15 -3 -8 -1 -15 4 -15 6 0
10 -12 10 -26 0 -17 4 -24 13 -21 7 3 13 -6 14 -24 1 -16 -3 -29 -8 -29 -6 0
-9 7 -5 15 3 8 1 15 -4 15 -24 0 -140 153 -194 259 -35 68 -13 77 210 86 378
16 716 1 974 -45 30 -5 71 -12 91 -15 20 -2 48 -9 63 -14 14 -6 33 -8 41 -5 8
4 15 1 15 -5 0 -17 35 -13 53 7 10 11 13 22 7 32 -5 8 -6 18 -4 22 3 4 -1 8
-9 8 -8 0 -25 20 -38 45 -13 25 -27 45 -31 45 -5 0 -8 4 -8 10 0 5 -29 55 -65
109 -36 55 -65 104 -65 110 0 5 -4 11 -9 13 -4 2 -41 50 -81 106 -39 57 -78
111 -85 120 -8 10 -64 79 -125 156 -62 76 -127 154 -146 174 -24 26 -34 45
-34 69 0 30 3 33 29 33 27 0 221 -14 331 -25 25 -2 115 -9 200 -15 85 -6 162
-14 170 -17 8 -3 19 -5 24 -4 8 2 236 -15 321 -24 20 -2 117 -11 213 -20 88
-9 75 17 -95 184 -202 197 -456 396 -646 506 -43 24 -48 31 -45 58 2 16 10 33
18 38 50 25 125 52 250 89 58 17 119 35 135 40 57 17 271 59 375 74 166 24
382 38 539 35 112 -2 146 0 149 10 5 16 -159 185 -243 249 -33 25 -62 49 -65
52 -3 3 -12 10 -21 15 -8 6 -55 36 -103 68 -48 32 -157 92 -242 133 -147 72
-154 77 -154 105 0 35 17 44 235 118 321 110 688 191 869 191 71 0 163 16 171
31 6 9 -95 62 -103 55 -2 -3 -16 0 -31 6 -14 6 -45 15 -68 19 -24 5 -62 13
-85 18 -98 21 -333 61 -386 66 -31 3 -71 9 -87 14 -43 12 -561 13 -725 1 -250
-17 -351 -28 -525 -57 -49 -8 -115 -18 -145 -23 -50 -8 -84 -13 -235 -39 -27
-4 -63 -14 -80 -20 -16 -7 -32 -12 -35 -12 -17 3 -123 -19 -315 -65 -82 -19
-188 -44 -235 -55 -47 -11 -101 -24 -120 -30 -40 -11 -308 -77 -360 -89 -19
-4 -93 -22 -165 -40 -71 -18 -147 -34 -168 -37 -20 -3 -40 -9 -43 -14 -3 -5
-17 -9 -30 -9 -22 0 -109 -19 -224 -49 -19 -5 -62 -15 -95 -21 -33 -6 -89 -18
-125 -25 -148 -31 -317 -60 -415 -71 -33 -3 -63 -8 -68 -11 -4 -2 -35 -6 -70
-9 -34 -3 -73 -7 -87 -11 -56 -12 -382 -32 -622 -37 -143 -3 -181 -1 -195 11
-16 13 -16 13 5 3 13 -6 35 -9 50 -7 25 4 25 4 -4 6 -53 2 -77 57 -40 88 l21
18 -20 -25 c-17 -21 -17 -22 -2 -11 25 20 49 69 41 83 -5 7 -3 8 6 3 10 -6 12
-4 7 9 -4 10 -3 15 3 11 11 -7 53 72 47 89 -3 7 -1 19 5 27 8 11 9 10 4 -4 -4
-11 -2 -16 5 -11 6 3 9 15 6 25 -3 12 -1 17 6 12 7 -4 8 0 4 11 -4 10 -3 15 3
11 11 -7 60 90 59 115 0 10 -3 9 -10 -5 -11 -24 -15 -47 41 245 51 266 58 363
36 540 -16 130 -47 294 -62 334 -5 13 -4 17 4 12 6 -4 14 -22 18 -41 3 -20 10
-37 14 -40 4 -3 4 10 0 28 -12 48 -21 67 -34 67 -6 0 -36 61 -67 135 -31 74
-53 133 -50 130 4 -2 32 -60 61 -129 30 -69 56 -123 58 -121 2 2 -29 77 -68
167 -40 90 -79 181 -87 203 -11 33 -13 35 -10 10 3 -16 7 -39 11 -50 4 -11 0
-7 -9 8 -11 19 -27 122 -50 335 -19 169 -37 318 -40 332 -10 47 -34 946 -35
1297 0 388 1 408 67 898 25 187 45 349 45 360 0 13 6 8 17 -16 9 -20 22 -43
29 -51 6 -8 8 -19 4 -23 -4 -5 -2 -5 4 -2 10 6 25 -13 28 -35 1 -4 7 -13 15
-20 10 -10 12 -10 7 0 -10 17 9 15 23 -2 9 -11 9 -15 -1 -18 -8 -3 -6 -7 6
-11 10 -4 15 -3 11 3 -3 6 -2 10 3 10 12 0 33 -25 27 -32 -3 -2 5 -4 18 -4 13
1 21 -4 19 -12 -1 -8 2 -11 8 -7 5 3 33 -1 62 -10 66 -19 180 -19 246 0 29 9
57 13 62 10 6 -4 9 -1 8 7 -2 7 6 13 19 13 12 0 26 5 30 9 5 5 2 6 -6 1 -10
-6 -12 -4 -7 4 5 7 14 10 20 8 7 -3 19 -1 27 5 11 7 9 8 -6 4 -15 -5 -12 1 12
24 32 30 50 39 37 18 -4 -7 -3 -8 5 -4 6 4 9 12 5 17 -3 5 0 17 7 25 10 12 14
12 21 2 7 -10 9 -10 5 2 -6 20 30 89 49 97 11 4 12 8 4 13 -8 5 -8 14 0 34 23
62 21 177 -6 241 -7 18 -6 19 10 6 16 -13 16 -12 5 13 -8 16 -15 22 -19 15 -5
-6 -12 1 -18 19 -6 17 -7 33 -4 37 4 4 0 5 -8 3 -9 -2 -15 4 -15 17 0 11 -5
20 -10 20 -20 0 -36 17 -31 32 3 8 1 11 -5 8 -12 -8 -51 24 -44 36 3 4 0 11
-6 15 -8 4 -9 3 -5 -4 4 -7 2 -12 -3 -12 -17 0 -13 15 16 75 15 30 33 55 40
55 7 0 10 6 8 13 -7 16 81 183 94 180 6 -2 8 4 5 12 -13 33 169 309 336 510
32 39 305 312 350 350 216 185 586 408 838 506 42 16 86 33 97 38 11 5 61 21
110 36 50 15 107 34 128 41 20 8 48 14 62 14 13 0 27 5 30 10 3 6 22 10 41 10
20 0 44 5 54 10 11 6 56 17 100 26 101 19 252 62 265 75 7 7 1 18 -16 32 -64
54 -120 100 -194 160 -44 35 -102 85 -129 110 -44 42 -48 49 -42 79 3 18 10
36 14 40 27 27 320 48 507 37 82 -5 157 -6 167 -3 17 5 20 35 5 50 -4 4 -7 16
-7 28 0 15 -3 17 -12 8 -7 -7 -8 -16 -1 -24 28 -38 -28 -64 -79 -37 -32 18
-41 18 -244 20 -182 1 -194 0 -389 -46 -51 -12 -82 -44 -67 -71 4 -7 95 -84
202 -171 211 -171 230 -196 155 -200 -44 -3 -162 -24 -300 -55 -49 -10 -108
-23 -130 -28 -45 -10 -243 -75 -350 -115 -38 -14 -137 -59 -220 -100 -568
-279 -1112 -788 -1384 -1294 -33 -63 -61 -119 -61 -126 0 -6 -4 -15 -9 -20
-10 -12 -64 -164 -64 -183 0 -9 -7 -11 -21 -7 -12 3 -46 11 -77 18 l-56 11 -6
86 c-27 373 -30 568 -13 863 9 165 21 333 26 375 25 193 32 243 46 322 54 302
132 593 234 870 17 47 35 96 40 110 53 167 269 693 296 721 20 21 33 59 20 59
-15 0 -276 62 -297 71 -25 10 -27 16 -33 92 -11 130 -52 407 -69 462 -28 92
-30 102 -17 85 10 -13 11 -12 6 3 -3 10 -6 24 -6 30 0 8 -3 7 -9 -1 -6 -10
-11 -7 -18 15 -109 307 -157 442 -165 458 -9 19 -8 19 6 2 8 -10 29 -61 47
-113 18 -52 34 -92 36 -90 15 15 -140 367 -160 363 -5 -1 -12 4 -15 12 -3 8 0
11 7 7 6 -4 11 -4 10 1 -1 20 -165 335 -174 335 -5 0 -17 3 -25 7 -8 4 -26 5
-40 3z m44 -774 c38 -59 132 -309 156 -418 7 -30 17 -71 22 -90 5 -19 12 -102
15 -185 4 -117 2 -154 -9 -167 -11 -14 -36 -17 -155 -20 -78 -2 -145 1 -149 5
-15 15 -8 532 9 662 9 66 18 139 21 163 2 23 10 49 16 57 19 22 57 18 74 -7z
m-2295 -462 c207 -212 372 -459 435 -649 39 -117 37 -128 -31 -159 -186 -84
-297 -128 -312 -123 -11 3 -22 23 -28 48 -6 23 -23 85 -37 137 -15 52 -38 142
-51 200 -45 188 -88 374 -96 415 -4 22 -12 58 -18 80 -16 60 -14 113 5 123 31
17 64 -1 133 -72z"/>
<path d="M7370 15295 c-5 -14 -10 -39 -10 -55 0 -59 -30 -183 -57 -233 -131
-244 -430 -274 -666 -66 -45 39 -50 41 -65 26 -14 -15 -14 -20 -1 -43 28 -53
109 -131 170 -164 80 -42 148 -60 234 -60 141 0 241 46 346 158 131 140 182
306 127 412 -28 55 -62 66 -78 25z"/>
<path d="M4490 14520 c-11 -11 -20 -28 -20 -39 0 -29 -48 -170 -77 -226 -40
-76 -70 -112 -123 -144 -171 -105 -389 -71 -560 88 -88 82 -107 64 -40 -37 97
-145 292 -230 466 -202 109 18 185 59 275 149 107 107 139 175 140 299 0 48
-2 95 -6 104 -10 26 -34 29 -55 8z"/>
</g>
</svg>
